<svg id="Layer_1" data-name="Layer 1" xmlns="http://www.w3.org/2000/svg" viewBox="0 0 403.32 125.54"><defs><style>.cls-1{fill:#c69421;}.cls-2{fill:#ebe9c4;}.cls-3{fill:#9e986c;}.cls-4{fill:#404041;}</style></defs><title>About</title><path class="cls-1" d="M672.44,220.67v73.41c0,13.88-9.13,25.12-20.42,25.12H291.86a17.45,17.45,0,0,1-10.13-3.31c-6.15-4.3-10.29-12.47-10.29-21.81V220.67c0-13.87,9.13-25.12,20.42-25.12H652a18,18,0,0,1,12.31,5.08C669.25,205.2,672.44,212.48,672.44,220.67Zm-4.33,73.41V220.67c0-6.64-2.52-12.95-6.73-16.87a13.59,13.59,0,0,0-9.36-3.92H291.86c-8.86,0-16.09,9.33-16.09,20.79v73.41c0,7.63,3.24,14.61,8.46,18.25a13.09,13.09,0,0,0,7.63,2.53H652C660.9,314.86,668.11,305.54,668.11,294.08Z" transform="translate(-271.44 -195.55)"/><path class="cls-2" d="M668.11,220.67v73.41c0,11.46-7.21,20.78-16.09,20.78H291.86a13.09,13.09,0,0,1-7.63-2.53c-5.22-3.64-8.46-10.62-8.46-18.25V220.67c0-11.46,7.23-20.79,16.09-20.79H652a13.59,13.59,0,0,1,9.36,3.92C665.59,207.72,668.11,214,668.11,220.67Zm-3.47,72.8v-10.4h-1.73v10.4Zm0-20.8v-10.4h-1.73v10.4Zm0-20.8v-10.4h-1.73v10.4Zm0-20.8v-10.4h-1.73v10.4Zm-3.78-19.37,1.55-.78a16.22,16.22,0,0,0-3.38-4.58,11,11,0,0,0-4.64-2.68l-.45,1.68a9.2,9.2,0,0,1,3.91,2.27A14.47,14.47,0,0,1,660.86,211.7Zm1.48,92.23-1.54-.79c-1.69,3.3-4.23,5.59-7,6.29l.43,1.68C657.48,310.29,660.42,307.67,662.34,303.93Zm-21.05-47.34,3.64-3.55-5-.74-2.25-4.56-2.25,4.56-5,.74,3.65,3.55-.86,5,4.5-2.36,4.51,2.36Zm2.5-51.51v-1.73h-10.4v1.73Zm-.11,106.32v-1.74h-10.4v1.74ZM623,205.08v-1.73h-10.4v1.73Zm-.11,106.32v-1.74h-10.4v1.74Zm-20.7-106.32v-1.73h-10.4v1.73Zm-.11,106.32v-1.74h-10.4v1.74ZM581.38,205.08v-1.73H571v1.73Zm-.11,106.32v-1.74h-10.4v1.74ZM560.58,205.08v-1.73h-10.4v1.73Zm-.11,106.32v-1.74h-10.4v1.74ZM539.78,205.08v-1.73h-10.4v1.73Zm-.11,106.32v-1.74h-10.4v1.74ZM519,205.08v-1.73h-10.4v1.73Zm-.11,106.32v-1.74h-10.4v1.74ZM498.18,205.08v-1.73H487.77v1.73Zm-.11,106.32v-1.74h-10.4v1.74Zm-20.7-106.32v-1.73H467v1.73Zm-.11,106.32v-1.74h-10.4v1.74ZM456.57,205.08v-1.73h-10.4v1.73Zm-.11,106.32v-1.74h-10.4v1.74ZM435.77,205.08v-1.73h-10.4v1.73Zm-.11,106.32v-1.74h-10.4v1.74ZM415,205.08v-1.73h-10.4v1.73Zm-.11,106.32v-1.74h-10.4v1.74ZM394.17,205.08v-1.73h-10.4v1.73Zm-.11,106.32v-1.74h-10.4v1.74ZM373.37,205.08v-1.73H363v1.73Zm-.11,106.32v-1.74h-10.4v1.74Zm-20.7-106.32v-1.73h-10.4v1.73Zm-.11,106.32v-1.74h-10.4v1.74ZM331.76,205.08v-1.73h-10.4v1.73Zm-.11,106.32v-1.74h-10.4v1.74Zm-20.3-54.81L315,253l-5-.74-2.26-4.56-2.25,4.56-5,.74,3.64,3.55-.86,5,4.5-2.36,4.51,2.36ZM311,205.08v-1.73h-10.4v1.73Zm-.11,106.32v-1.74h-10.4v1.74Zm-20.5-106.16-.36-1.7c-3.26.69-6.28,3.22-8.28,7l1.53.82C285,208,287.59,205.82,290.35,205.24Zm-.48,105.92.39-1.68a9.07,9.07,0,0,1-3.06-1.41,13.44,13.44,0,0,1-4-4.72l-1.53.81a15.1,15.1,0,0,0,4.58,5.33A10.47,10.47,0,0,0,289.87,311.16ZM281,293.72v-10.4h-1.73v10.4Zm0-20.8v-10.4h-1.73v10.4Zm0-20.8v-10.4h-1.73v10.4Zm0-20.81v-10.4h-1.73v10.4Z" transform="translate(-271.44 -195.55)"/><rect class="cls-3" x="391.47" y="87.52" width="1.73" height="10.4"/><rect class="cls-3" x="391.47" y="66.72" width="1.73" height="10.4"/><rect class="cls-3" x="391.47" y="45.92" width="1.73" height="10.4"/><rect class="cls-3" x="391.47" y="25.12" width="1.73" height="10.4"/><path class="cls-3" d="M662.41,210.92l-1.55.78a14.47,14.47,0,0,0-3-4.09,9.2,9.2,0,0,0-3.91-2.27l.45-1.68a11,11,0,0,1,4.64,2.68A16.22,16.22,0,0,1,662.41,210.92Z" transform="translate(-271.44 -195.55)"/><path class="cls-3" d="M660.8,303.14l1.54.79c-1.92,3.74-4.86,6.36-8.07,7.18l-.43-1.68C656.57,308.73,659.11,306.44,660.8,303.14Z" transform="translate(-271.44 -195.55)"/><polygon class="cls-1" points="373.49 57.49 369.85 61.04 370.71 66.05 366.2 63.69 361.7 66.05 362.56 61.04 358.91 57.49 363.95 56.75 366.2 52.19 368.45 56.75 373.49 57.49"/><rect class="cls-3" x="361.95" y="7.8" width="10.4" height="1.73"/><rect class="cls-3" x="361.84" y="114.11" width="10.4" height="1.74"/><rect class="cls-3" x="341.15" y="7.8" width="10.4" height="1.73"/><rect class="cls-3" x="341.04" y="114.11" width="10.4" height="1.74"/><rect class="cls-3" x="320.34" y="7.8" width="10.4" height="1.73"/><rect class="cls-3" x="320.23" y="114.11" width="10.4" height="1.74"/><rect class="cls-3" x="299.54" y="7.8" width="10.4" height="1.73"/><rect class="cls-3" x="299.43" y="114.11" width="10.4" height="1.74"/><rect class="cls-3" x="278.74" y="7.8" width="10.4" height="1.73"/><rect class="cls-3" x="278.63" y="114.11" width="10.4" height="1.74"/><rect class="cls-3" x="257.94" y="7.8" width="10.4" height="1.73"/><rect class="cls-3" x="257.83" y="114.11" width="10.4" height="1.74"/><rect class="cls-3" x="237.14" y="7.8" width="10.4" height="1.73"/><rect class="cls-3" x="237.03" y="114.11" width="10.4" height="1.74"/><rect class="cls-3" x="216.33" y="7.8" width="10.41" height="1.73"/><rect class="cls-3" x="216.23" y="114.11" width="10.4" height="1.74"/><rect class="cls-3" x="195.53" y="7.8" width="10.4" height="1.73"/><rect class="cls-3" x="195.42" y="114.11" width="10.4" height="1.74"/><rect class="cls-3" x="174.73" y="7.8" width="10.4" height="1.73"/><rect class="cls-3" x="174.62" y="114.11" width="10.4" height="1.74"/><rect class="cls-3" x="153.93" y="7.8" width="10.4" height="1.73"/><rect class="cls-3" x="153.82" y="114.11" width="10.4" height="1.74"/><rect class="cls-3" x="133.13" y="7.8" width="10.4" height="1.73"/><rect class="cls-3" x="133.02" y="114.11" width="10.4" height="1.74"/><rect class="cls-3" x="112.33" y="7.8" width="10.4" height="1.73"/><rect class="cls-3" x="112.22" y="114.11" width="10.4" height="1.74"/><rect class="cls-3" x="91.52" y="7.8" width="10.41" height="1.73"/><rect class="cls-3" x="91.42" y="114.11" width="10.4" height="1.74"/><rect class="cls-3" x="70.72" y="7.8" width="10.4" height="1.73"/><rect class="cls-3" x="70.61" y="114.11" width="10.4" height="1.74"/><rect class="cls-3" x="49.92" y="7.8" width="10.4" height="1.73"/><rect class="cls-3" x="49.81" y="114.11" width="10.4" height="1.74"/><polygon class="cls-1" points="43.55 57.49 39.91 61.04 40.77 66.05 36.26 63.69 31.76 66.05 32.62 61.04 28.98 57.49 34.01 56.75 36.26 52.19 38.52 56.75 43.55 57.49"/><rect class="cls-3" x="29.12" y="7.8" width="10.4" height="1.73"/><rect class="cls-3" x="29.01" y="114.11" width="10.4" height="1.74"/><path class="cls-4" d="M674.76,296c0,13.87-9.15,25.12-20.42,25.12H294.16a18,18,0,0,1-12.43-5.2,17.45,17.45,0,0,0,10.13,3.31H652c11.29,0,20.42-11.24,20.42-25.12V220.67c0-8.19-3.19-15.47-8.11-20,6.22,4.3,10.43,12.5,10.43,21.91Z" transform="translate(-271.44 -195.55)"/><path class="cls-3" d="M290,203.54l.36,1.7c-2.76.58-5.35,2.79-7.11,6.07l-1.53-.82C283.71,206.76,286.73,204.23,290,203.54Z" transform="translate(-271.44 -195.55)"/><path class="cls-3" d="M290.26,309.48l-.39,1.68a10.47,10.47,0,0,1-3.66-1.67,15.1,15.1,0,0,1-4.58-5.33l1.53-.81a13.44,13.44,0,0,0,4,4.72A9.07,9.07,0,0,0,290.26,309.48Z" transform="translate(-271.44 -195.55)"/><rect class="cls-3" x="7.8" y="87.77" width="1.73" height="10.4"/><rect class="cls-3" x="7.8" y="66.97" width="1.73" height="10.4"/><rect class="cls-3" x="7.8" y="46.17" width="1.73" height="10.4"/><rect class="cls-3" x="7.8" y="25.36" width="1.73" height="10.4"/><path class="cls-1" d="M390.87,274.15h-.33V239.88a6,6,0,0,1,.44-2.3,5.37,5.37,0,0,1,1.27-1.84,6.16,6.16,0,0,1,1.87-1.26,5.54,5.54,0,0,1,2.3-.48h5.65a5.62,5.62,0,0,1,2.94.78,6.06,6.06,0,0,1,2.1,2.08l3.92,3.8a6.06,6.06,0,0,1,1.26,1.82,5.34,5.34,0,0,1,.48,2.27v34.11h-7.62l-1.85-1.8v1.8h-7.61Zm16-34.27a4.78,4.78,0,0,0-4.76-4.76h-5.65a4.78,4.78,0,0,0-4.76,4.76V273h5.71V259.76h3.81V273h5.65Zm-9.46,14.22V242.51a1.61,1.61,0,0,1,.51-1.18,1.67,1.67,0,0,1,1.19-.5h.4a1.69,1.69,0,0,1,1.2.5,1.61,1.61,0,0,1,.51,1.18V254.1Z" transform="translate(-271.44 -195.55)"/><path class="cls-1" d="M414.28,274.15h-.34V234h10.84a8.06,8.06,0,0,1,3.4.73,5.51,5.51,0,0,1,2.49,2.18l3.93,3.87.12.05a5.37,5.37,0,0,1,1.57,3.92v8.91a5.25,5.25,0,0,1-1.85,4.2l.17.11a5.44,5.44,0,0,1,1.68,4.09l-.06,11.7a4,4,0,0,1-.53,2,6,6,0,0,1-1.35,1.6,6.48,6.48,0,0,1-1.82,1.06,5.63,5.63,0,0,1-2,.4h-11.4Zm11.2-1.12a4.75,4.75,0,0,0,1.68-.31,4.9,4.9,0,0,0,1.51-.86,5.24,5.24,0,0,0,1.12-1.32,3.15,3.15,0,0,0,.45-1.65l.06-11.71a4.64,4.64,0,0,0-.69-2.43,4.77,4.77,0,0,0-1.8-1.77,4.75,4.75,0,0,0,1.8-1.76,4.68,4.68,0,0,0,.69-2.44v-8.9a4.33,4.33,0,0,0-.48-2.07,4.62,4.62,0,0,0-1.23-1.49,5.36,5.36,0,0,0-1.77-.89,6.88,6.88,0,0,0-2.07-.31h-9.69V273Zm-.9-7.39a1.64,1.64,0,0,1-.5,1.23,1.66,1.66,0,0,1-1.23.51h-2.07V255.84h2.07a1.71,1.71,0,0,1,1.23.48,1.54,1.54,0,0,1,.5,1.2Zm-3.75-15.57v-9.24h1.74a2.43,2.43,0,0,1,1.4.42,1.42,1.42,0,0,1,.61,1.26v5.88a2,2,0,0,1-.39,1.12,1.18,1.18,0,0,1-1,.56Z" transform="translate(-271.44 -195.55)"/><path class="cls-1" d="M440.49,273.37a5.72,5.72,0,0,1-2.1-2.1,5.82,5.82,0,0,1-.81-3V239.88a6,6,0,0,1,.44-2.3,5.37,5.37,0,0,1,1.27-1.84,6.16,6.16,0,0,1,1.87-1.26,5.54,5.54,0,0,1,2.3-.48h5.65a5.62,5.62,0,0,1,2.94.78,6.06,6.06,0,0,1,2.1,2.08l3.92,3.8a6.06,6.06,0,0,1,1.26,1.82,5.34,5.34,0,0,1,.48,2.27v28.39a5.54,5.54,0,0,1-.45,2.22,5.8,5.8,0,0,1-1.23,1.81,5.71,5.71,0,0,1-1.82,1.24,5.49,5.49,0,0,1-2.21.45h-5.66a5.44,5.44,0,0,1-4-1.63Zm13.38-33.49a4.78,4.78,0,0,0-4.76-4.76h-5.65a4.78,4.78,0,0,0-4.76,4.76v28.39a4.78,4.78,0,0,0,4.76,4.76h5.65a4.78,4.78,0,0,0,4.76-4.76Zm-5.65,25.76a1.57,1.57,0,0,1-.49,1.2,1.66,1.66,0,0,1-1.22.48h-.4a1.66,1.66,0,0,1-1.22-.48,1.6,1.6,0,0,1-.48-1.2V242.51a1.73,1.73,0,0,1,.48-1.23,1.6,1.6,0,0,1,1.22-.5h.4a1.6,1.6,0,0,1,1.22.5,1.7,1.7,0,0,1,.49,1.23Z" transform="translate(-271.44 -195.55)"/><path class="cls-1" d="M478.85,234.33l4.82,4.71V273.2a5.57,5.57,0,0,1-5.66,5.66h-5.94a5.49,5.49,0,0,1-4-1.63l-4-3.86a6.3,6.3,0,0,1-2.07-2.1,5.67,5.67,0,0,1-.78-2.94V234h7.89v.33l1.85,1.8V234h7.9Zm-1.12.79h-5.66v30.52a1.44,1.44,0,0,1-.64,1.34,2.64,2.64,0,0,1-1.43.4c-1.34.14-2-.51-2-2v-30.3h-5.65v33.21a4.5,4.5,0,0,0,1.4,3.33,4.64,4.64,0,0,0,3.36,1.37H473a4.68,4.68,0,0,0,4.71-4.7Z" transform="translate(-271.44 -195.55)"/><path class="cls-1" d="M501.64,234v.33l4.82,4.71v7.56h-4.32v32.26h-7.61l-4.82-4.71h-.33V245.82l-4-3.92h-.33V234Zm-15.45,1.12v5.66h4.31V273h5.71V240.78h4.31v-5.66Z" transform="translate(-271.44 -195.55)"/><path class="cls-1" d="M534.68,234.33,539.5,239V273.2a5.57,5.57,0,0,1-5.66,5.66H527.9a5.51,5.51,0,0,1-4-1.63l-4-3.86a6.24,6.24,0,0,1-2.08-2.1,5.67,5.67,0,0,1-.78-2.94V234h7.9v.33l1.84,1.8V234h7.9Zm-1.12.79H527.9v30.52a1.44,1.44,0,0,1-.64,1.34,2.64,2.64,0,0,1-1.43.4c-1.34.14-2-.51-2-2v-30.3h-5.66v33.21a4.5,4.5,0,0,0,1.4,3.33,4.64,4.64,0,0,0,3.36,1.37h5.94a4.68,4.68,0,0,0,4.7-4.7Z" transform="translate(-271.44 -195.55)"/><path class="cls-1" d="M553.78,251.7a3.22,3.22,0,0,0,.5,1.68c.64.63,1.23,1.28,1.79,2l2.3,2.3-.11-.11.39.39.11.06.5.45a16.89,16.89,0,0,1,2.8,3.5,8.31,8.31,0,0,1,1.18,4.45v6.83a5.4,5.4,0,0,1-.45,2.16,5.8,5.8,0,0,1-1.23,1.81,5.71,5.71,0,0,1-1.82,1.24,5.36,5.36,0,0,1-2.16.45h-5.71a5.4,5.4,0,0,1-4-1.57l-4-3.92a5.82,5.82,0,0,1-2.8-5v-7.79H549v.34l1.57,1.51a3.2,3.2,0,0,0-.42-1.2,8.39,8.39,0,0,0-.9-1.29,16.79,16.79,0,0,0-1.15-1.26l-1.23-1.23c-.67-.6-1.35-1.24-2-1.93a17.25,17.25,0,0,1-1.88-2.22,10.52,10.52,0,0,1-1.34-2.52,8.25,8.25,0,0,1-.51-3v-7.9a5.75,5.75,0,0,1,1.66-4.17,5.55,5.55,0,0,1,4.17-1.71h5.71a5.68,5.68,0,0,1,2.91.75,5.89,5.89,0,0,1,2.07,2.05l4,3.86a5.58,5.58,0,0,1,1.68,4.09v7.56h-7.56l-1.9-1.85Zm-5.94-9.19a1.56,1.56,0,0,1,.53-1.2,1.77,1.77,0,0,1,1.21-.48,1.86,1.86,0,0,1,1.56.59,3,3,0,0,1,.56,1.48,8.39,8.39,0,0,1,0,1.88c-.05.65-.08,1.22-.08,1.71h5.65v-6.61a4.6,4.6,0,0,0-1.37-3.36,4.49,4.49,0,0,0-3.33-1.4h-5.71a4.49,4.49,0,0,0-3.33,1.4,4.61,4.61,0,0,0-1.38,3.36v7.9a7.38,7.38,0,0,0,.7,3.19,12.51,12.51,0,0,0,1.77,2.69,26.15,26.15,0,0,0,2.27,2.32c.8.73,1.55,1.45,2.26,2.15a13.86,13.86,0,0,1,1.77,2.13,4.09,4.09,0,0,1,.7,2.3c0,.37,0,.83.05,1.37a7.41,7.41,0,0,1-.05,1.57,3.31,3.31,0,0,1-.48,1.32,1.39,1.39,0,0,1-1.26.56,1.83,1.83,0,0,1-1.57-.62,3.23,3.23,0,0,1-.56-1.48,8.74,8.74,0,0,1,0-1.85c0-.66.08-1.24.08-1.77h-5.66v6.67a4.69,4.69,0,0,0,4.71,4.7h5.71a4.78,4.78,0,0,0,4.7-4.7V261.5a7.25,7.25,0,0,0-.7-3.2,11.82,11.82,0,0,0-1.76-2.68,47.33,47.33,0,0,0-3.33-3.37,21.36,21.36,0,0,1-3-3.19,4,4,0,0,1-.7-2.24Zm10.53,15.12.33.28h-.05Zm.33.28a.05.05,0,0,1,.06.06Z" transform="translate(-271.44 -195.55)"/></svg>