<svg id="Layer_1" data-name="Layer 1" xmlns="http://www.w3.org/2000/svg" viewBox="0 0 403.32 125.54"><defs><style>.cls-1{fill:#c69421;}.cls-2{fill:#ebe9c4;}.cls-3{fill:#9e986c;}.cls-4{fill:#404041;}</style></defs><title>Products</title><path class="cls-1" d="M672.44,220.67v73.41c0,13.88-9.13,25.12-20.42,25.12H291.86a17.45,17.45,0,0,1-10.13-3.31c-6.15-4.3-10.29-12.47-10.29-21.81V220.67c0-13.87,9.13-25.12,20.42-25.12H652a18,18,0,0,1,12.31,5.08C669.25,205.2,672.44,212.48,672.44,220.67Zm-4.33,73.41V220.67c0-6.64-2.52-12.95-6.73-16.87a13.59,13.59,0,0,0-9.36-3.92H291.86c-8.86,0-16.09,9.33-16.09,20.79v73.41c0,7.63,3.24,14.61,8.46,18.25a13.09,13.09,0,0,0,7.63,2.53H652C660.9,314.86,668.11,305.54,668.11,294.08Z" transform="translate(-271.44 -195.55)"/><path class="cls-2" d="M668.11,220.67v73.41c0,11.46-7.21,20.78-16.09,20.78H291.86a13.09,13.09,0,0,1-7.63-2.53c-5.22-3.64-8.46-10.62-8.46-18.25V220.67c0-11.46,7.23-20.79,16.09-20.79H652a13.59,13.59,0,0,1,9.36,3.92C665.59,207.72,668.11,214,668.11,220.67Zm-3.47,72.8v-10.4h-1.73v10.4Zm0-20.8v-10.4h-1.73v10.4Zm0-20.8v-10.4h-1.73v10.4Zm0-20.8v-10.4h-1.73v10.4Zm-3.78-19.37,1.55-.78a16.22,16.22,0,0,0-3.38-4.58,11,11,0,0,0-4.64-2.68l-.45,1.68a9.2,9.2,0,0,1,3.91,2.27A14.47,14.47,0,0,1,660.86,211.7Zm1.48,92.23-1.54-.79c-1.69,3.3-4.23,5.59-7,6.29l.43,1.68C657.48,310.29,660.42,307.67,662.34,303.93Zm-21.05-47.34,3.64-3.55-5-.74-2.25-4.56-2.25,4.56-5,.74,3.65,3.55-.86,5,4.5-2.36,4.51,2.36Zm2.5-51.51v-1.73h-10.4v1.73Zm-.11,106.32v-1.74h-10.4v1.74ZM623,205.08v-1.73h-10.4v1.73Zm-.11,106.32v-1.74h-10.4v1.74Zm-20.7-106.32v-1.73h-10.4v1.73Zm-.11,106.32v-1.74h-10.4v1.74ZM581.38,205.08v-1.73H571v1.73Zm-.11,106.32v-1.74h-10.4v1.74ZM560.58,205.08v-1.73h-10.4v1.73Zm-.11,106.32v-1.74h-10.4v1.74ZM539.78,205.08v-1.73h-10.4v1.73Zm-.11,106.32v-1.74h-10.4v1.74ZM519,205.08v-1.73h-10.4v1.73Zm-.11,106.32v-1.74h-10.4v1.74ZM498.18,205.08v-1.73H487.77v1.73Zm-.11,106.32v-1.74h-10.4v1.74Zm-20.7-106.32v-1.73H467v1.73Zm-.11,106.32v-1.74h-10.4v1.74ZM456.57,205.08v-1.73h-10.4v1.73Zm-.11,106.32v-1.74h-10.4v1.74ZM435.77,205.08v-1.73h-10.4v1.73Zm-.11,106.32v-1.74h-10.4v1.74ZM415,205.08v-1.73h-10.4v1.73Zm-.11,106.32v-1.74h-10.4v1.74ZM394.17,205.08v-1.73h-10.4v1.73Zm-.11,106.32v-1.74h-10.4v1.74ZM373.37,205.08v-1.73H363v1.73Zm-.11,106.32v-1.74h-10.4v1.74Zm-20.7-106.32v-1.73h-10.4v1.73Zm-.11,106.32v-1.74h-10.4v1.74ZM331.76,205.08v-1.73h-10.4v1.73Zm-.11,106.32v-1.74h-10.4v1.74Zm-20.3-54.81L315,253l-5-.74-2.26-4.56-2.25,4.56-5,.74,3.64,3.55-.86,5,4.5-2.36,4.51,2.36ZM311,205.08v-1.73h-10.4v1.73Zm-.11,106.32v-1.74h-10.4v1.74Zm-20.5-106.16-.36-1.7c-3.26.69-6.28,3.22-8.28,7l1.53.82C285,208,287.59,205.82,290.35,205.24Zm-.48,105.92.39-1.68a9.07,9.07,0,0,1-3.06-1.41,13.44,13.44,0,0,1-4-4.72l-1.53.81a15.1,15.1,0,0,0,4.58,5.33A10.47,10.47,0,0,0,289.87,311.16ZM281,293.72v-10.4h-1.73v10.4Zm0-20.8v-10.4h-1.73v10.4Zm0-20.8v-10.4h-1.73v10.4Zm0-20.81v-10.4h-1.73v10.4Z" transform="translate(-271.44 -195.55)"/><rect class="cls-3" x="391.47" y="87.52" width="1.73" height="10.4"/><rect class="cls-3" x="391.47" y="66.72" width="1.73" height="10.4"/><rect class="cls-3" x="391.47" y="45.92" width="1.73" height="10.4"/><rect class="cls-3" x="391.47" y="25.12" width="1.73" height="10.4"/><path class="cls-3" d="M662.41,210.92l-1.55.78a14.47,14.47,0,0,0-3-4.09,9.2,9.2,0,0,0-3.91-2.27l.45-1.68a11,11,0,0,1,4.64,2.68A16.22,16.22,0,0,1,662.41,210.92Z" transform="translate(-271.44 -195.55)"/><path class="cls-3" d="M660.8,303.14l1.54.79c-1.92,3.74-4.86,6.36-8.07,7.18l-.43-1.68C656.57,308.73,659.11,306.44,660.8,303.14Z" transform="translate(-271.44 -195.55)"/><polygon class="cls-1" points="373.49 57.49 369.85 61.04 370.71 66.05 366.2 63.69 361.7 66.05 362.56 61.04 358.91 57.49 363.95 56.75 366.2 52.19 368.45 56.75 373.49 57.49"/><rect class="cls-3" x="361.95" y="7.8" width="10.4" height="1.73"/><rect class="cls-3" x="361.84" y="114.11" width="10.4" height="1.74"/><rect class="cls-3" x="341.15" y="7.8" width="10.4" height="1.73"/><rect class="cls-3" x="341.04" y="114.11" width="10.4" height="1.74"/><rect class="cls-3" x="320.34" y="7.8" width="10.4" height="1.73"/><rect class="cls-3" x="320.23" y="114.11" width="10.4" height="1.74"/><rect class="cls-3" x="299.54" y="7.8" width="10.4" height="1.73"/><rect class="cls-3" x="299.43" y="114.11" width="10.4" height="1.74"/><rect class="cls-3" x="278.74" y="7.8" width="10.4" height="1.73"/><rect class="cls-3" x="278.63" y="114.11" width="10.4" height="1.74"/><rect class="cls-3" x="257.94" y="7.8" width="10.4" height="1.73"/><rect class="cls-3" x="257.83" y="114.11" width="10.4" height="1.74"/><rect class="cls-3" x="237.14" y="7.8" width="10.4" height="1.73"/><rect class="cls-3" x="237.03" y="114.11" width="10.4" height="1.74"/><rect class="cls-3" x="216.33" y="7.8" width="10.41" height="1.73"/><rect class="cls-3" x="216.23" y="114.11" width="10.4" height="1.74"/><rect class="cls-3" x="195.53" y="7.8" width="10.4" height="1.73"/><rect class="cls-3" x="195.42" y="114.11" width="10.4" height="1.74"/><rect class="cls-3" x="174.73" y="7.8" width="10.4" height="1.73"/><rect class="cls-3" x="174.62" y="114.11" width="10.4" height="1.74"/><rect class="cls-3" x="153.93" y="7.8" width="10.4" height="1.73"/><rect class="cls-3" x="153.82" y="114.11" width="10.4" height="1.74"/><rect class="cls-3" x="133.13" y="7.8" width="10.4" height="1.73"/><rect class="cls-3" x="133.02" y="114.11" width="10.4" height="1.74"/><rect class="cls-3" x="112.33" y="7.8" width="10.4" height="1.73"/><rect class="cls-3" x="112.22" y="114.11" width="10.4" height="1.74"/><rect class="cls-3" x="91.52" y="7.8" width="10.41" height="1.73"/><rect class="cls-3" x="91.42" y="114.11" width="10.4" height="1.74"/><rect class="cls-3" x="70.72" y="7.8" width="10.4" height="1.73"/><rect class="cls-3" x="70.61" y="114.11" width="10.4" height="1.74"/><rect class="cls-3" x="49.92" y="7.8" width="10.4" height="1.73"/><rect class="cls-3" x="49.81" y="114.11" width="10.4" height="1.74"/><polygon class="cls-1" points="43.55 57.49 39.91 61.04 40.77 66.05 36.26 63.69 31.76 66.05 32.62 61.04 28.98 57.49 34.01 56.75 36.26 52.19 38.52 56.75 43.55 57.49"/><rect class="cls-3" x="29.12" y="7.8" width="10.4" height="1.73"/><rect class="cls-3" x="29.01" y="114.11" width="10.4" height="1.74"/><path class="cls-4" d="M674.76,296c0,13.87-9.15,25.12-20.42,25.12H294.16a18,18,0,0,1-12.43-5.2,17.45,17.45,0,0,0,10.13,3.31H652c11.29,0,20.42-11.24,20.42-25.12V220.67c0-8.19-3.19-15.47-8.11-20,6.22,4.3,10.43,12.5,10.43,21.91Z" transform="translate(-271.44 -195.55)"/><path class="cls-3" d="M290,203.54l.36,1.7c-2.76.58-5.35,2.79-7.11,6.07l-1.53-.82C283.71,206.76,286.73,204.23,290,203.54Z" transform="translate(-271.44 -195.55)"/><path class="cls-3" d="M290.26,309.48l-.39,1.68a10.47,10.47,0,0,1-3.66-1.67,15.1,15.1,0,0,1-4.58-5.33l1.53-.81a13.44,13.44,0,0,0,4,4.72A9.07,9.07,0,0,0,290.26,309.48Z" transform="translate(-271.44 -195.55)"/><rect class="cls-3" x="7.8" y="87.77" width="1.73" height="10.4"/><rect class="cls-3" x="7.8" y="66.97" width="1.73" height="10.4"/><rect class="cls-3" x="7.8" y="46.17" width="1.73" height="10.4"/><rect class="cls-3" x="7.8" y="25.36" width="1.73" height="10.4"/><path class="cls-1" d="M394.93,234a5.62,5.62,0,0,1,2.94.78,6.06,6.06,0,0,1,2.1,2.08l.06,0,3.86,3.75a6.06,6.06,0,0,1,1.26,1.82,5.34,5.34,0,0,1,.48,2.27v15.18a5.6,5.6,0,0,1-.87,3.36,4.82,4.82,0,0,1-2.21,1.68,9.54,9.54,0,0,1-2.94.56c-1.06,0-2.08.05-3.05.05h-.11v13.28h-7.56l-4.82-4.71h-.34V234Zm-10.08,1.12V273h5.66V259.76l2.94,0a10.46,10.46,0,0,0,3-.37,4.91,4.91,0,0,0,2.32-1.37,4.2,4.2,0,0,0,.92-3V239.88a4.78,4.78,0,0,0-4.76-4.76Zm5.66,19V240.83h1.79a1.71,1.71,0,0,1,1.68,1.68v9.86a1.76,1.76,0,0,1-.47,1.2,1.54,1.54,0,0,1-1.21.53Z" transform="translate(-271.44 -195.55)"/><path class="cls-1" d="M407.42,274.15h-.34V234h11.54a5.67,5.67,0,0,1,2.94.78,6.06,6.06,0,0,1,2.1,2.08l3.92,3.8a6.44,6.44,0,0,1,1.26,1.82,5.34,5.34,0,0,1,.48,2.27v15.12a6,6,0,0,1-.73,2.94,5.08,5.08,0,0,1-2.13,2.05q.74,3.36,1.57,7.08t1.57,6.92h-7.9L419.8,277v1.85h-7.56Zm16-34.27a4.78,4.78,0,0,0-4.76-4.76H408.2V273h5.66V259.76h.73L417.5,273h5.88l-3-13.61a4.49,4.49,0,0,0,2.18-1.73,4.68,4.68,0,0,0,.84-2.69Zm-5.71,12.49a1.75,1.75,0,0,1-1.68,1.68h-2.13V240.78H416a1.52,1.52,0,0,1,1.2.53,1.73,1.73,0,0,1,.48,1.2Z" transform="translate(-271.44 -195.55)"/><path class="cls-1" d="M433.57,273.37a5.72,5.72,0,0,1-2.1-2.1,5.82,5.82,0,0,1-.81-3V239.88a5.86,5.86,0,0,1,.45-2.3,5.49,5.49,0,0,1,1.26-1.84,6.16,6.16,0,0,1,1.87-1.26,5.54,5.54,0,0,1,2.3-.48h5.66a5.67,5.67,0,0,1,2.94.78,6.24,6.24,0,0,1,2.1,2.08l3.92,3.8a6.44,6.44,0,0,1,1.26,1.82,5.49,5.49,0,0,1,.47,2.27v28.39a5.54,5.54,0,0,1-.45,2.22,5.64,5.64,0,0,1-1.23,1.81,5.71,5.71,0,0,1-1.82,1.24,5.49,5.49,0,0,1-2.21.45h-5.66a5.42,5.42,0,0,1-4-1.63ZM447,239.88a4.78,4.78,0,0,0-4.76-4.76h-5.66a4.78,4.78,0,0,0-4.76,4.76v28.39a4.78,4.78,0,0,0,4.76,4.76h5.66a4.78,4.78,0,0,0,4.76-4.76Zm-5.66,25.76a1.6,1.6,0,0,1-.48,1.2,1.66,1.66,0,0,1-1.22.48h-.4a1.64,1.64,0,0,1-1.22-.48,1.57,1.57,0,0,1-.49-1.2V242.51a1.7,1.7,0,0,1,.49-1.23,1.58,1.58,0,0,1,1.22-.5h.4a1.6,1.6,0,0,1,1.22.5,1.73,1.73,0,0,1,.48,1.23Z" transform="translate(-271.44 -195.55)"/><path class="cls-1" d="M454.52,274.15h-.34V234h12a5.62,5.62,0,0,1,2.94.78,6.06,6.06,0,0,1,2.1,2.08l3.92,3.8a6.06,6.06,0,0,1,1.26,1.82,5.34,5.34,0,0,1,.48,2.27V273.2a5.56,5.56,0,0,1-1.68,4,6,6,0,0,1-1.82,1.21,5.49,5.49,0,0,1-2.21.45H459.33Zm16.4-34.27a4.78,4.78,0,0,0-4.76-4.76H455.3V273h10.86a4.64,4.64,0,0,0,3.36-1.37,4.46,4.46,0,0,0,1.4-3.33Zm-5.71,25.76a1.76,1.76,0,0,1-.47,1.2,1.54,1.54,0,0,1-1.21.54H461V240.83h2.57a1.71,1.71,0,0,1,1.68,1.68Z" transform="translate(-271.44 -195.55)"/><path class="cls-1" d="M495.84,234.33l4.82,4.71V273.2a5.55,5.55,0,0,1-5.66,5.66h-5.93a5.47,5.47,0,0,1-4-1.63l-4-3.86a6.12,6.12,0,0,1-2.07-2.1,5.58,5.58,0,0,1-.79-2.94V234h7.9v.33l1.85,1.8V234h7.89Zm-1.12.79h-5.65v30.52a1.44,1.44,0,0,1-.65,1.34,2.61,2.61,0,0,1-1.42.4c-1.35.14-2-.51-2-2v-30.3h-5.66v33.21a4.5,4.5,0,0,0,1.4,3.33,4.67,4.67,0,0,0,3.36,1.37H490a4.68,4.68,0,0,0,4.7-4.7Z" transform="translate(-271.44 -195.55)"/><path class="cls-1" d="M519.47,260.88l4.82,4.7v7.62a5.4,5.4,0,0,1-.45,2.16,5.8,5.8,0,0,1-1.23,1.81,5.71,5.71,0,0,1-1.82,1.24,5.36,5.36,0,0,1-2.16.45h-5.71a5.49,5.49,0,0,1-4-1.63l-4-3.86a6.24,6.24,0,0,1-2.08-2.1,5.67,5.67,0,0,1-.78-2.94V239.88a5.86,5.86,0,0,1,.45-2.3,5.49,5.49,0,0,1,1.26-1.84,6.16,6.16,0,0,1,1.87-1.26,5.54,5.54,0,0,1,2.3-.48h5.71a5.68,5.68,0,0,1,2.91.75,5.89,5.89,0,0,1,2.07,2.05l4,3.86a5.58,5.58,0,0,1,1.68,4.09v7.56h-7.56l-1.9-1.85v10.08h4.64Zm-1.11.78H512.7c0,.38,0,.88.08,1.51a9.84,9.84,0,0,1,0,1.88,3.89,3.89,0,0,1-.47,1.62,1.42,1.42,0,0,1-1.35.71,2.57,2.57,0,0,1-1.45-.4,1.47,1.47,0,0,1-.62-1.34V242.51a1.73,1.73,0,0,1,1.68-1.68,2,2,0,0,1,1.65.59,2.78,2.78,0,0,1,.59,1.46,7.08,7.08,0,0,1,0,1.84,16.92,16.92,0,0,0-.11,1.77h5.66v-6.61a4.61,4.61,0,0,0-1.38-3.36,4.49,4.49,0,0,0-3.33-1.4h-5.71a4.78,4.78,0,0,0-4.76,4.76v28.45a4.5,4.5,0,0,0,1.4,3.33,4.64,4.64,0,0,0,3.36,1.37h5.71a4.78,4.78,0,0,0,4.71-4.7Z" transform="translate(-271.44 -195.55)"/><path class="cls-1" d="M541.93,234v.33l4.82,4.71v7.56h-4.32v32.26h-7.61L530,274.15h-.33V245.82l-4-3.92h-.34V234Zm-15.46,1.12v5.66h4.32V273h5.71V240.78h4.31v-5.66Z" transform="translate(-271.44 -195.55)"/><path class="cls-1" d="M560.58,251.7a3.32,3.32,0,0,0,.5,1.68c.64.63,1.23,1.28,1.79,2l2.3,2.3-.11-.11.39.39.11.06.51.45a17.57,17.57,0,0,1,2.8,3.5,8.4,8.4,0,0,1,1.17,4.45v6.83a5.4,5.4,0,0,1-.45,2.16,5.8,5.8,0,0,1-1.23,1.81,5.71,5.71,0,0,1-1.82,1.24,5.35,5.35,0,0,1-2.15.45h-5.72a5.4,5.4,0,0,1-4-1.57l-4-3.92a6,6,0,0,1-2-2.1,5.85,5.85,0,0,1-.75-2.94v-7.79h7.89v.34l1.57,1.51a3.2,3.2,0,0,0-.42-1.2,8.39,8.39,0,0,0-.9-1.29,16.63,16.63,0,0,0-1.14-1.26l-1.24-1.23c-.67-.6-1.35-1.24-2-1.93a17.25,17.25,0,0,1-1.88-2.22,10.88,10.88,0,0,1-1.34-2.52,8.25,8.25,0,0,1-.5-3v-7.9a5.78,5.78,0,0,1,1.65-4.17,5.55,5.55,0,0,1,4.17-1.71h5.71a5.66,5.66,0,0,1,2.91.75,6,6,0,0,1,2.08,2.05l4,3.86a5.58,5.58,0,0,1,1.68,4.09v7.56h-7.56l-1.9-1.85Zm-5.94-9.19a1.56,1.56,0,0,1,.53-1.2,1.77,1.77,0,0,1,1.21-.48,1.88,1.88,0,0,1,1.57.59,3.17,3.17,0,0,1,.56,1.48,9,9,0,0,1,0,1.88c0,.65-.08,1.22-.08,1.71h5.66v-6.61a4.61,4.61,0,0,0-1.38-3.36,4.49,4.49,0,0,0-3.33-1.4h-5.71a4.49,4.49,0,0,0-3.33,1.4,4.6,4.6,0,0,0-1.37,3.36v7.9a7.24,7.24,0,0,0,.7,3.19,12.1,12.1,0,0,0,1.76,2.69,27.62,27.62,0,0,0,2.27,2.32c.8.73,1.56,1.45,2.27,2.15a14.36,14.36,0,0,1,1.76,2.13,4.09,4.09,0,0,1,.7,2.3c0,.37,0,.83.06,1.37a8.13,8.13,0,0,1-.06,1.57,3.17,3.17,0,0,1-.48,1.32,1.39,1.39,0,0,1-1.26.56,1.8,1.8,0,0,1-1.56-.62,3.12,3.12,0,0,1-.56-1.48,8.11,8.11,0,0,1,0-1.85c.05-.66.08-1.24.08-1.77H549v6.67a4.68,4.68,0,0,0,4.7,4.7h5.71a4.78,4.78,0,0,0,4.71-4.7V261.5a7.39,7.39,0,0,0-.7-3.2,12.21,12.21,0,0,0-1.77-2.68,47.33,47.33,0,0,0-3.33-3.37,21.36,21.36,0,0,1-3-3.19,4.05,4.05,0,0,1-.7-2.24Zm10.53,15.12.34.28h-.06Zm.34.28s0,0,0,.06Z" transform="translate(-271.44 -195.55)"/></svg>