<svg id="Layer_1" data-name="Layer 1" xmlns="http://www.w3.org/2000/svg" viewBox="0 0 403.32 125.54"><defs><style>.cls-1{fill:#c69421;}.cls-2{fill:#ebe9c4;}.cls-3{fill:#9e986c;}.cls-4{fill:#404041;}</style></defs><title>Profile</title><path class="cls-1" d="M672.44,220.67v73.41c0,13.88-9.13,25.12-20.42,25.12H291.86a17.45,17.45,0,0,1-10.13-3.31c-6.15-4.3-10.29-12.47-10.29-21.81V220.67c0-13.87,9.13-25.12,20.42-25.12H652a18,18,0,0,1,12.31,5.08C669.25,205.2,672.44,212.48,672.44,220.67Zm-4.33,73.41V220.67c0-6.64-2.52-12.95-6.73-16.87a13.59,13.59,0,0,0-9.36-3.92H291.86c-8.86,0-16.09,9.33-16.09,20.79v73.41c0,7.63,3.24,14.61,8.46,18.25a13.09,13.09,0,0,0,7.63,2.53H652C660.9,314.86,668.11,305.54,668.11,294.08Z" transform="translate(-271.44 -195.55)"/><path class="cls-2" d="M668.11,220.67v73.41c0,11.46-7.21,20.78-16.09,20.78H291.86a13.09,13.09,0,0,1-7.63-2.53c-5.22-3.64-8.46-10.62-8.46-18.25V220.67c0-11.46,7.23-20.79,16.09-20.79H652a13.59,13.59,0,0,1,9.36,3.92C665.59,207.72,668.11,214,668.11,220.67Zm-3.47,72.8v-10.4h-1.73v10.4Zm0-20.8v-10.4h-1.73v10.4Zm0-20.8v-10.4h-1.73v10.4Zm0-20.8v-10.4h-1.73v10.4Zm-3.78-19.37,1.55-.78a16.22,16.22,0,0,0-3.38-4.58,11,11,0,0,0-4.64-2.68l-.45,1.68a9.2,9.2,0,0,1,3.91,2.27A14.47,14.47,0,0,1,660.86,211.7Zm1.48,92.23-1.54-.79c-1.69,3.3-4.23,5.59-7,6.29l.43,1.68C657.48,310.29,660.42,307.67,662.34,303.93Zm-21.05-47.34,3.64-3.55-5-.74-2.25-4.56-2.25,4.56-5,.74,3.65,3.55-.86,5,4.5-2.36,4.51,2.36Zm2.5-51.51v-1.73h-10.4v1.73Zm-.11,106.32v-1.74h-10.4v1.74ZM623,205.08v-1.73h-10.4v1.73Zm-.11,106.32v-1.74h-10.4v1.74Zm-20.7-106.32v-1.73h-10.4v1.73Zm-.11,106.32v-1.74h-10.4v1.74ZM581.38,205.08v-1.73H571v1.73Zm-.11,106.32v-1.74h-10.4v1.74ZM560.58,205.08v-1.73h-10.4v1.73Zm-.11,106.32v-1.74h-10.4v1.74ZM539.78,205.08v-1.73h-10.4v1.73Zm-.11,106.32v-1.74h-10.4v1.74ZM519,205.08v-1.73h-10.4v1.73Zm-.11,106.32v-1.74h-10.4v1.74ZM498.18,205.08v-1.73H487.77v1.73Zm-.11,106.32v-1.74h-10.4v1.74Zm-20.7-106.32v-1.73H467v1.73Zm-.11,106.32v-1.74h-10.4v1.74ZM456.57,205.08v-1.73h-10.4v1.73Zm-.11,106.32v-1.74h-10.4v1.74ZM435.77,205.08v-1.73h-10.4v1.73Zm-.11,106.32v-1.74h-10.4v1.74ZM415,205.08v-1.73h-10.4v1.73Zm-.11,106.32v-1.74h-10.4v1.74ZM394.17,205.08v-1.73h-10.4v1.73Zm-.11,106.32v-1.74h-10.4v1.74ZM373.37,205.08v-1.73H363v1.73Zm-.11,106.32v-1.74h-10.4v1.74Zm-20.7-106.32v-1.73h-10.4v1.73Zm-.11,106.32v-1.74h-10.4v1.74ZM331.76,205.08v-1.73h-10.4v1.73Zm-.11,106.32v-1.74h-10.4v1.74Zm-20.3-54.81L315,253l-5-.74-2.26-4.56-2.25,4.56-5,.74,3.64,3.55-.86,5,4.5-2.36,4.51,2.36ZM311,205.08v-1.73h-10.4v1.73Zm-.11,106.32v-1.74h-10.4v1.74Zm-20.5-106.16-.36-1.7c-3.26.69-6.28,3.22-8.28,7l1.53.82C285,208,287.59,205.82,290.35,205.24Zm-.48,105.92.39-1.68a9.07,9.07,0,0,1-3.06-1.41,13.44,13.44,0,0,1-4-4.72l-1.53.81a15.1,15.1,0,0,0,4.58,5.33A10.47,10.47,0,0,0,289.87,311.16ZM281,293.72v-10.4h-1.73v10.4Zm0-20.8v-10.4h-1.73v10.4Zm0-20.8v-10.4h-1.73v10.4Zm0-20.81v-10.4h-1.73v10.4Z" transform="translate(-271.44 -195.55)"/><rect class="cls-3" x="391.47" y="87.52" width="1.73" height="10.4"/><rect class="cls-3" x="391.47" y="66.72" width="1.73" height="10.4"/><rect class="cls-3" x="391.47" y="45.92" width="1.73" height="10.4"/><rect class="cls-3" x="391.47" y="25.12" width="1.73" height="10.4"/><path class="cls-3" d="M662.41,210.92l-1.55.78a14.47,14.47,0,0,0-3-4.09,9.2,9.2,0,0,0-3.91-2.27l.45-1.68a11,11,0,0,1,4.64,2.68A16.22,16.22,0,0,1,662.41,210.92Z" transform="translate(-271.44 -195.55)"/><path class="cls-3" d="M660.8,303.14l1.54.79c-1.92,3.74-4.86,6.36-8.07,7.18l-.43-1.68C656.57,308.73,659.11,306.44,660.8,303.14Z" transform="translate(-271.44 -195.55)"/><polygon class="cls-1" points="373.49 57.49 369.85 61.04 370.71 66.05 366.2 63.69 361.7 66.05 362.56 61.04 358.91 57.49 363.95 56.75 366.2 52.19 368.45 56.75 373.49 57.49"/><rect class="cls-3" x="361.95" y="7.8" width="10.4" height="1.73"/><rect class="cls-3" x="361.84" y="114.11" width="10.4" height="1.74"/><rect class="cls-3" x="341.15" y="7.8" width="10.4" height="1.73"/><rect class="cls-3" x="341.04" y="114.11" width="10.4" height="1.74"/><rect class="cls-3" x="320.34" y="7.8" width="10.4" height="1.73"/><rect class="cls-3" x="320.23" y="114.11" width="10.4" height="1.74"/><rect class="cls-3" x="299.54" y="7.8" width="10.4" height="1.73"/><rect class="cls-3" x="299.43" y="114.11" width="10.4" height="1.74"/><rect class="cls-3" x="278.74" y="7.8" width="10.4" height="1.73"/><rect class="cls-3" x="278.63" y="114.11" width="10.4" height="1.74"/><rect class="cls-3" x="257.94" y="7.8" width="10.4" height="1.73"/><rect class="cls-3" x="257.83" y="114.11" width="10.4" height="1.74"/><rect class="cls-3" x="237.14" y="7.8" width="10.4" height="1.73"/><rect class="cls-3" x="237.03" y="114.11" width="10.4" height="1.74"/><rect class="cls-3" x="216.33" y="7.8" width="10.41" height="1.73"/><rect class="cls-3" x="216.23" y="114.11" width="10.4" height="1.74"/><rect class="cls-3" x="195.53" y="7.8" width="10.4" height="1.73"/><rect class="cls-3" x="195.42" y="114.11" width="10.4" height="1.74"/><rect class="cls-3" x="174.73" y="7.8" width="10.4" height="1.73"/><rect class="cls-3" x="174.62" y="114.11" width="10.4" height="1.74"/><rect class="cls-3" x="153.93" y="7.8" width="10.4" height="1.73"/><rect class="cls-3" x="153.82" y="114.11" width="10.4" height="1.74"/><rect class="cls-3" x="133.13" y="7.8" width="10.4" height="1.73"/><rect class="cls-3" x="133.02" y="114.11" width="10.4" height="1.74"/><rect class="cls-3" x="112.33" y="7.8" width="10.4" height="1.73"/><rect class="cls-3" x="112.22" y="114.11" width="10.4" height="1.74"/><rect class="cls-3" x="91.52" y="7.8" width="10.41" height="1.73"/><rect class="cls-3" x="91.42" y="114.11" width="10.4" height="1.74"/><rect class="cls-3" x="70.72" y="7.8" width="10.4" height="1.73"/><rect class="cls-3" x="70.61" y="114.11" width="10.4" height="1.74"/><rect class="cls-3" x="49.92" y="7.8" width="10.4" height="1.73"/><rect class="cls-3" x="49.81" y="114.11" width="10.4" height="1.74"/><polygon class="cls-1" points="43.55 57.49 39.91 61.04 40.77 66.05 36.26 63.69 31.76 66.05 32.62 61.04 28.98 57.49 34.01 56.75 36.26 52.19 38.52 56.75 43.55 57.49"/><rect class="cls-3" x="29.12" y="7.8" width="10.4" height="1.73"/><rect class="cls-3" x="29.01" y="114.11" width="10.4" height="1.74"/><path class="cls-4" d="M674.76,296c0,13.87-9.15,25.12-20.42,25.12H294.16a18,18,0,0,1-12.43-5.2,17.45,17.45,0,0,0,10.13,3.31H652c11.29,0,20.42-11.24,20.42-25.12V220.67c0-8.19-3.19-15.47-8.11-20,6.22,4.3,10.43,12.5,10.43,21.91Z" transform="translate(-271.44 -195.55)"/><path class="cls-3" d="M290,203.54l.36,1.7c-2.76.58-5.35,2.79-7.11,6.07l-1.53-.82C283.71,206.76,286.73,204.23,290,203.54Z" transform="translate(-271.44 -195.55)"/><path class="cls-3" d="M290.26,309.48l-.39,1.68a10.47,10.47,0,0,1-3.66-1.67,15.1,15.1,0,0,1-4.58-5.33l1.53-.81a13.44,13.44,0,0,0,4,4.72A9.07,9.07,0,0,0,290.26,309.48Z" transform="translate(-271.44 -195.55)"/><rect class="cls-3" x="7.8" y="87.77" width="1.73" height="10.4"/><rect class="cls-3" x="7.8" y="66.97" width="1.73" height="10.4"/><rect class="cls-3" x="7.8" y="46.17" width="1.73" height="10.4"/><rect class="cls-3" x="7.8" y="25.36" width="1.73" height="10.4"/><path class="cls-1" d="M415.88,234a5.67,5.67,0,0,1,2.94.78,6.24,6.24,0,0,1,2.1,2.08l.05,0,3.87,3.75a6.44,6.44,0,0,1,1.26,1.82,5.49,5.49,0,0,1,.47,2.27v15.18a5.67,5.67,0,0,1-.86,3.36,4.85,4.85,0,0,1-2.22,1.68,9.42,9.42,0,0,1-2.94.56c-1.06,0-2.08.05-3.05.05h-.11v13.28h-7.56L405,274.15h-.33V234Zm-10.08,1.12V273h5.65V259.76l2.94,0a10.37,10.37,0,0,0,3-.37,4.86,4.86,0,0,0,2.32-1.37,4.2,4.2,0,0,0,.93-3V239.88a4.78,4.78,0,0,0-4.76-4.76Zm5.65,19V240.83h1.8a1.73,1.73,0,0,1,1.68,1.68v9.86a1.73,1.73,0,0,1-.48,1.2,1.53,1.53,0,0,1-1.2.53Z" transform="translate(-271.44 -195.55)"/><path class="cls-1" d="M428.36,274.15H428V234h11.53a5.62,5.62,0,0,1,2.94.78,6.06,6.06,0,0,1,2.1,2.08l3.92,3.8a6.06,6.06,0,0,1,1.26,1.82,5.34,5.34,0,0,1,.48,2.27v15.12a5.94,5.94,0,0,1-.73,2.94,5,5,0,0,1-2.13,2.05q.74,3.36,1.57,7.08c.56,2.48,1.09,4.79,1.57,6.92h-7.9l-1.9-1.85v1.85h-7.56Zm16-34.27a4.78,4.78,0,0,0-4.76-4.76H429.15V273h5.65V259.76h.73L438.44,273h5.88l-3-13.61a4.45,4.45,0,0,0,2.18-1.73,4.68,4.68,0,0,0,.84-2.69Zm-5.71,12.49a1.73,1.73,0,0,1-1.68,1.68H434.8V240.78h2.13a1.54,1.54,0,0,1,1.21.53,1.76,1.76,0,0,1,.47,1.2Z" transform="translate(-271.44 -195.55)"/><path class="cls-1" d="M454.52,273.37a5.93,5.93,0,0,1-2.92-5.1V239.88a5.86,5.86,0,0,1,.45-2.3,5.49,5.49,0,0,1,1.26-1.84,6.21,6.21,0,0,1,1.88-1.26,5.5,5.5,0,0,1,2.29-.48h5.66a5.67,5.67,0,0,1,2.94.78,6.06,6.06,0,0,1,2.1,2.08l3.92,3.8a6.44,6.44,0,0,1,1.26,1.82,5.34,5.34,0,0,1,.48,2.27v28.39a5.54,5.54,0,0,1-.45,2.22,5.88,5.88,0,0,1-3.05,3.05,5.51,5.51,0,0,1-2.22.45h-5.65a5.42,5.42,0,0,1-4-1.63Zm13.38-33.49a4.78,4.78,0,0,0-4.76-4.76h-5.66a4.78,4.78,0,0,0-4.76,4.76v28.39a4.78,4.78,0,0,0,4.76,4.76h5.66a4.78,4.78,0,0,0,4.76-4.76Zm-5.66,25.76a1.6,1.6,0,0,1-.48,1.2,1.66,1.66,0,0,1-1.22.48h-.4a1.66,1.66,0,0,1-1.22-.48,1.6,1.6,0,0,1-.48-1.2V242.51a1.73,1.73,0,0,1,.48-1.23,1.6,1.6,0,0,1,1.22-.5h.4a1.6,1.6,0,0,1,1.22.5,1.73,1.73,0,0,1,.48,1.23Z" transform="translate(-271.44 -195.55)"/><path class="cls-1" d="M490.08,234v.33l4.81,4.71v7.56H488v2.3h.95v.33l4.82,4.71v7.61H488v17.31h-7.62l-4.81-4.71h-.34V234Zm-13.78,1.12V273H482v-17.3h5.77V250H482v-9.24H489v-5.66Z" transform="translate(-271.44 -195.55)"/><path class="cls-1" d="M504.13,234v.33L509,239v39.82h-7.62l-4.81-4.71h-.34V234Zm-6.83,1.12V273H503V235.12Z" transform="translate(-271.44 -195.55)"/><path class="cls-1" d="M510.46,274.15h-.34V234H518v.33l4.82,4.71v27.21h1.28v.34l4.82,4.7v7.57H515.28Zm6.44-6.77V235.12h-5.66V273H523v-5.65Z" transform="translate(-271.44 -195.55)"/><path class="cls-1" d="M542.6,249.17h.79v.34l4.81,4.7v7.62h-5.6v4.42h2v.34l4.82,4.7v7.57H535l-4.81-4.71h-.34V234h14.67v.33l4.82,4.71v7.62H542.6Zm-5.93,18.21V256h5.6v-5.72h-5.6v-9.46h6.77v-5.71H531V273h12.43v-5.65Z" transform="translate(-271.44 -195.55)"/></svg>