<?xml version="1.0" standalone="no"?>
<!DOCTYPE svg PUBLIC "-//W3C//DTD SVG 20010904//EN"
 "http://www.w3.org/TR/2001/REC-SVG-20010904/DTD/svg10.dtd">
<svg version="1.0" xmlns="http://www.w3.org/2000/svg"
 width="96.000000pt" height="96.000000pt" viewBox="0 0 96.000000 96.000000"
 preserveAspectRatio="xMidYMid meet">
<metadata>
Created by potrace 1.15, written by Peter Selinger 2001-2017
</metadata>
<g transform="translate(0.000000,96.000000) scale(0.100000,-0.100000)"
fill="#000000" stroke="none">
<path d="M120 480 l0 -330 185 0 184 0 15 -27 c21 -40 75 -90 118 -107 52 -22
153 -20 203 3 87 40 135 120 135 223 0 79 -24 133 -79 180 l-41 35 0 176 0
177 -360 0 -360 0 0 -330z m660 240 l0 -30 -300 0 -300 0 0 30 0 30 300 0 300
0 0 -30z m0 -165 l0 -75 -45 0 c-43 0 -45 1 -45 30 l0 30 -150 0 -150 0 0 -30
0 -30 133 0 132 0 -41 -19 c-23 -10 -45 -24 -48 -30 -4 -7 -41 -11 -92 -11
l-84 0 0 -30 c0 -30 0 -30 56 -30 50 0 55 -2 49 -17 -4 -10 -10 -44 -13 -75
l-4 -58 -149 0 -149 0 0 210 0 210 300 0 300 0 0 -75z m30 -167 c59 -41 75
-72 75 -148 0 -54 -4 -75 -21 -96 -37 -51 -70 -68 -137 -72 -53 -3 -67 0 -97
20 -56 38 -80 82 -80 148 0 66 24 110 79 147 47 32 135 32 181 1z"/>
<path d="M690 315 l0 -45 -45 0 c-43 0 -45 -1 -45 -30 0 -29 2 -30 45 -30 l45
0 0 -45 c0 -43 1 -45 30 -45 29 0 30 2 30 45 l0 45 45 0 c43 0 45 1 45 30 0
29 -2 30 -45 30 l-45 0 0 45 c0 43 -1 45 -30 45 -29 0 -30 -2 -30 -45z"/>
</g>
</svg>
