<?xml version="1.0" standalone="no"?>
<!DOCTYPE svg PUBLIC "-//W3C//DTD SVG 20010904//EN"
 "http://www.w3.org/TR/2001/REC-SVG-20010904/DTD/svg10.dtd">
<svg version="1.0" xmlns="http://www.w3.org/2000/svg"
 width="96.000000pt" height="96.000000pt" viewBox="0 0 96.000000 96.000000"
 preserveAspectRatio="xMidYMid meet">
<metadata>
Created by potrace 1.15, written by Peter Selinger 2001-2017
</metadata>
<g transform="translate(0.000000,96.000000) scale(0.100000,-0.100000)"
fill="#000000" stroke="none">
<path d="M120 720 c0 -29 2 -30 45 -30 50 0 40 20 90 -180 39 -156 44 -169 70
-176 l23 -6 -24 -23 c-34 -34 -33 -97 1 -130 34 -35 96 -35 130 0 35 34 35 96
0 130 l-24 25 94 0 94 0 -24 -25 c-35 -34 -35 -96 0 -130 34 -35 96 -35 130 0
34 33 35 96 1 130 l-24 23 24 6 c25 7 31 22 88 234 l25 92 -255 0 c-268 0
-265 1 -248 -44 5 -14 33 -16 209 -16 l203 0 -27 -102 -28 -103 -166 -3 -166
-2 -10 37 c-6 21 -24 96 -42 166 -17 71 -38 135 -46 143 -10 9 -36 14 -79 14
l-64 0 0 -30z"/>
</g>
</svg>
