<?xml version="1.0" standalone="no"?>
<!DOCTYPE svg PUBLIC "-//W3C//DTD SVG 20010904//EN"
 "http://www.w3.org/TR/2001/REC-SVG-20010904/DTD/svg10.dtd">
<svg version="1.0" xmlns="http://www.w3.org/2000/svg"
 width="96.000000pt" height="96.000000pt" viewBox="0 0 96.000000 96.000000"
 preserveAspectRatio="xMidYMid meet">
<metadata>
Created by potrace 1.15, written by Peter Selinger 2001-2017
</metadata>
<g transform="translate(0.000000,96.000000) scale(0.100000,-0.100000)"
fill="#000000" stroke="none">
<path d="M267 682 l-208 -208 29 -27 c26 -25 29 -26 45 -10 16 16 17 8 17
-150 l0 -167 135 0 135 0 0 135 0 135 60 0 60 0 0 -135 0 -135 135 0 135 0 0
167 c0 160 1 165 18 150 17 -16 20 -15 45 11 l27 28 -75 74 -75 74 0 63 0 63
-30 0 c-27 0 -30 -3 -30 -32 0 -32 -1 -31 -103 70 -56 56 -105 102 -107 102
-3 0 -99 -94 -213 -208z m350 -34 l133 -133 0 -167 0 -168 -75 0 -75 0 0 135
0 135 -120 0 -120 0 0 -135 0 -135 -75 0 -75 0 0 167 0 168 132 132 c73 73
135 133 138 133 2 0 64 -60 137 -132z" class="home_icon" />
</g>
</svg>
