<?xml version="1.0" standalone="no"?>
<!DOCTYPE svg PUBLIC "-//W3C//DTD SVG 20010904//EN"
 "http://www.w3.org/TR/2001/REC-SVG-20010904/DTD/svg10.dtd">
<svg version="1.0" xmlns="http://www.w3.org/2000/svg"
 width="96.000000pt" height="96.000000pt" viewBox="0 0 96.000000 96.000000"
 preserveAspectRatio="xMidYMid meet">
<metadata>
Created by potrace 1.15, written by Peter Selinger 2001-2017
</metadata>
<g transform="translate(0.000000,96.000000) scale(0.100000,-0.100000)"
fill="#000000" stroke="none">
<path d="M315 790 c-55 -55 -107 -100 -117 -100 -23 0 -25 -18 -38 -300 -6
-129 -13 -250 -16 -267 l-5 -33 341 0 341 0 -5 33 c-3 17 -10 138 -16 267 -13
292 -15 300 -43 300 -13 0 -48 26 -92 70 l-71 70 -29 -30 -29 -30 -61 60 -60
60 -100 -100z m408 -280 c4 -66 10 -174 14 -240 l6 -120 -263 0 -263 0 7 122
c3 68 9 176 13 241 l6 117 237 0 237 0 6 -120z"/>
<path d="M330 468 c0 -84 4 -108 19 -132 31 -46 69 -66 131 -66 62 0 100 20
131 66 15 24 19 48 19 132 l0 102 -29 0 -29 0 -4 -90 c-4 -77 -7 -93 -28 -115
-17 -18 -34 -25 -60 -25 -26 0 -43 7 -60 25 -21 22 -24 38 -28 115 l-4 90 -29
0 -29 0 0 -102z"/>
</g>
</svg>
