<?xml version="1.0" standalone="no"?>
<!DOCTYPE svg PUBLIC "-//W3C//DTD SVG 20010904//EN"
 "http://www.w3.org/TR/2001/REC-SVG-20010904/DTD/svg10.dtd">
<svg version="1.0" xmlns="http://www.w3.org/2000/svg"
 width="96.000000pt" height="96.000000pt" viewBox="0 0 96.000000 96.000000"
 preserveAspectRatio="xMidYMid meet">
<metadata>
Created by potrace 1.15, written by Peter Selinger 2001-2017
</metadata>
<g transform="translate(0.000000,96.000000) scale(0.100000,-0.100000)"
fill="#000000" stroke="none">
<path d="M351 854 c-98 -35 -174 -103 -225 -199 -30 -57 -31 -65 -31 -175 0
-110 1 -118 32 -175 40 -77 101 -138 178 -178 57 -31 65 -32 175 -32 110 0
118 1 176 32 76 40 142 106 180 181 27 53 29 65 29 172 0 107 -2 119 -29 173
-38 74 -110 146 -183 182 -50 25 -72 29 -158 32 -73 2 -112 -1 -144 -13z m259
-80 c73 -34 126 -86 161 -159 24 -50 29 -73 29 -135 0 -62 -5 -85 -29 -135
-57 -119 -161 -185 -291 -185 -130 0 -234 66 -291 185 -24 50 -29 73 -29 135
0 130 66 234 185 291 82 40 184 41 265 3z"/>
<path d="M355 580 l-100 -100 103 -102 102 -103 27 28 27 27 -59 60 -59 60
147 0 147 0 0 30 0 30 -147 0 -147 0 59 60 59 60 -24 25 c-13 14 -26 25 -29
25 -4 0 -51 -45 -106 -100z"/>
</g>
</svg>
